<mxfile host="app.diagrams.net" modified="2024-03-08T12:14:20.420Z" agent="Mozilla/5.0 (Windows NT 10.0; Win64; x64) AppleWebKit/537.36 (KHTML, like Gecko) Chrome/120.0.0.0 YaBrowser/24.1.0.0 Safari/537.36" etag="5Lavi4iBjuynnb2lgq5Z" version="24.0.2" type="device">
  <diagram name="Страница — 1" id="AYQqrGZV5MYxkGHrkEwz">
    <mxGraphModel dx="1205" dy="721" grid="1" gridSize="10" guides="1" tooltips="1" connect="1" arrows="1" fold="1" page="1" pageScale="1" pageWidth="827" pageHeight="1169" math="0" shadow="0">
      <root>
        <mxCell id="0" />
        <mxCell id="1" parent="0" />
        <mxCell id="5VpTLWuGb7ubiWnxd4XH-16" style="rounded=0;orthogonalLoop=1;jettySize=auto;html=1;entryX=0;entryY=0.5;entryDx=0;entryDy=0;" edge="1" parent="1" source="5VpTLWuGb7ubiWnxd4XH-4" target="5VpTLWuGb7ubiWnxd4XH-5">
          <mxGeometry relative="1" as="geometry" />
        </mxCell>
        <mxCell id="5VpTLWuGb7ubiWnxd4XH-17" style="rounded=0;orthogonalLoop=1;jettySize=auto;html=1;entryX=0;entryY=0.5;entryDx=0;entryDy=0;" edge="1" parent="1" source="5VpTLWuGb7ubiWnxd4XH-4" target="5VpTLWuGb7ubiWnxd4XH-6">
          <mxGeometry relative="1" as="geometry" />
        </mxCell>
        <mxCell id="5VpTLWuGb7ubiWnxd4XH-19" style="rounded=0;orthogonalLoop=1;jettySize=auto;html=1;entryX=0;entryY=0;entryDx=0;entryDy=0;" edge="1" parent="1" source="5VpTLWuGb7ubiWnxd4XH-4" target="5VpTLWuGb7ubiWnxd4XH-18">
          <mxGeometry relative="1" as="geometry" />
        </mxCell>
        <mxCell id="5VpTLWuGb7ubiWnxd4XH-4" value="Неавторизированный&lt;div&gt;пользователь&lt;/div&gt;" style="shape=umlActor;verticalLabelPosition=bottom;verticalAlign=top;html=1;" vertex="1" parent="1">
          <mxGeometry x="64" y="90" width="30" height="60" as="geometry" />
        </mxCell>
        <mxCell id="5VpTLWuGb7ubiWnxd4XH-9" style="rounded=0;orthogonalLoop=1;jettySize=auto;html=1;exitX=1;exitY=0.5;exitDx=0;exitDy=0;entryX=0.013;entryY=0.358;entryDx=0;entryDy=0;dashed=1;entryPerimeter=0;" edge="1" parent="1" source="5VpTLWuGb7ubiWnxd4XH-5" target="5VpTLWuGb7ubiWnxd4XH-10">
          <mxGeometry relative="1" as="geometry">
            <mxPoint x="444" y="65" as="targetPoint" />
          </mxGeometry>
        </mxCell>
        <mxCell id="5VpTLWuGb7ubiWnxd4XH-30" value="&amp;lt;&amp;lt;include&amp;gt;&amp;gt;" style="edgeLabel;html=1;align=center;verticalAlign=middle;resizable=0;points=[];" vertex="1" connectable="0" parent="5VpTLWuGb7ubiWnxd4XH-9">
          <mxGeometry x="-0.1459" y="3" relative="1" as="geometry">
            <mxPoint as="offset" />
          </mxGeometry>
        </mxCell>
        <mxCell id="5VpTLWuGb7ubiWnxd4XH-5" value="Авторизироваться" style="ellipse;whiteSpace=wrap;html=1;" vertex="1" parent="1">
          <mxGeometry x="204" y="30" width="140" height="70" as="geometry" />
        </mxCell>
        <mxCell id="5VpTLWuGb7ubiWnxd4XH-11" style="rounded=0;orthogonalLoop=1;jettySize=auto;html=1;exitX=1;exitY=0.5;exitDx=0;exitDy=0;entryX=0.013;entryY=0.657;entryDx=0;entryDy=0;dashed=1;entryPerimeter=0;" edge="1" parent="1" source="5VpTLWuGb7ubiWnxd4XH-6" target="5VpTLWuGb7ubiWnxd4XH-10">
          <mxGeometry relative="1" as="geometry" />
        </mxCell>
        <mxCell id="5VpTLWuGb7ubiWnxd4XH-33" value="&amp;lt;&amp;lt;include&amp;gt;&amp;gt;" style="edgeLabel;html=1;align=center;verticalAlign=middle;resizable=0;points=[];" vertex="1" connectable="0" parent="5VpTLWuGb7ubiWnxd4XH-11">
          <mxGeometry x="-0.0244" y="2" relative="1" as="geometry">
            <mxPoint as="offset" />
          </mxGeometry>
        </mxCell>
        <mxCell id="5VpTLWuGb7ubiWnxd4XH-6" value="Зарегистрироваться" style="ellipse;whiteSpace=wrap;html=1;" vertex="1" parent="1">
          <mxGeometry x="204" y="130" width="140" height="70" as="geometry" />
        </mxCell>
        <mxCell id="5VpTLWuGb7ubiWnxd4XH-10" value="Ввести данные" style="ellipse;whiteSpace=wrap;html=1;" vertex="1" parent="1">
          <mxGeometry x="434" y="80" width="140" height="70" as="geometry" />
        </mxCell>
        <mxCell id="5VpTLWuGb7ubiWnxd4XH-15" style="rounded=0;orthogonalLoop=1;jettySize=auto;html=1;exitX=0;exitY=0.5;exitDx=0;exitDy=0;entryX=1;entryY=0.5;entryDx=0;entryDy=0;dashed=1;" edge="1" parent="1" source="5VpTLWuGb7ubiWnxd4XH-14" target="5VpTLWuGb7ubiWnxd4XH-10">
          <mxGeometry relative="1" as="geometry" />
        </mxCell>
        <mxCell id="5VpTLWuGb7ubiWnxd4XH-28" value="&amp;lt;&amp;lt;extend&amp;gt;&amp;gt;" style="edgeLabel;html=1;align=center;verticalAlign=middle;resizable=0;points=[];" vertex="1" connectable="0" parent="5VpTLWuGb7ubiWnxd4XH-15">
          <mxGeometry x="0.0584" y="2" relative="1" as="geometry">
            <mxPoint x="7" y="-2" as="offset" />
          </mxGeometry>
        </mxCell>
        <mxCell id="5VpTLWuGb7ubiWnxd4XH-14" value="Неверные данные" style="ellipse;whiteSpace=wrap;html=1;" vertex="1" parent="1">
          <mxGeometry x="680" y="80" width="140" height="70" as="geometry" />
        </mxCell>
        <mxCell id="5VpTLWuGb7ubiWnxd4XH-18" value="Взаимодействие с курсами" style="ellipse;whiteSpace=wrap;html=1;" vertex="1" parent="1">
          <mxGeometry x="144" y="230" width="140" height="70" as="geometry" />
        </mxCell>
        <mxCell id="5VpTLWuGb7ubiWnxd4XH-21" style="rounded=0;orthogonalLoop=1;jettySize=auto;html=1;exitX=0.5;exitY=0;exitDx=0;exitDy=0;entryX=0;entryY=1;entryDx=0;entryDy=0;dashed=1;" edge="1" parent="1" source="5VpTLWuGb7ubiWnxd4XH-20" target="5VpTLWuGb7ubiWnxd4XH-18">
          <mxGeometry relative="1" as="geometry" />
        </mxCell>
        <mxCell id="5VpTLWuGb7ubiWnxd4XH-32" value="&amp;lt;&amp;lt;extend&amp;gt;&amp;gt;" style="edgeLabel;html=1;align=center;verticalAlign=middle;resizable=0;points=[];" vertex="1" connectable="0" parent="5VpTLWuGb7ubiWnxd4XH-21">
          <mxGeometry x="-0.2063" y="1" relative="1" as="geometry">
            <mxPoint as="offset" />
          </mxGeometry>
        </mxCell>
        <mxCell id="5VpTLWuGb7ubiWnxd4XH-20" value="Просмотр списка курсов" style="ellipse;whiteSpace=wrap;html=1;" vertex="1" parent="1">
          <mxGeometry x="40" y="340" width="140" height="70" as="geometry" />
        </mxCell>
        <mxCell id="5VpTLWuGb7ubiWnxd4XH-23" style="rounded=0;orthogonalLoop=1;jettySize=auto;html=1;exitX=0.5;exitY=0;exitDx=0;exitDy=0;entryX=1;entryY=1;entryDx=0;entryDy=0;dashed=1;" edge="1" parent="1" source="5VpTLWuGb7ubiWnxd4XH-22" target="5VpTLWuGb7ubiWnxd4XH-18">
          <mxGeometry relative="1" as="geometry" />
        </mxCell>
        <mxCell id="5VpTLWuGb7ubiWnxd4XH-31" value="&amp;lt;&amp;lt;extend&amp;gt;&amp;gt;" style="edgeLabel;html=1;align=center;verticalAlign=middle;resizable=0;points=[];" vertex="1" connectable="0" parent="5VpTLWuGb7ubiWnxd4XH-23">
          <mxGeometry x="-0.0728" y="2" relative="1" as="geometry">
            <mxPoint as="offset" />
          </mxGeometry>
        </mxCell>
        <mxCell id="5VpTLWuGb7ubiWnxd4XH-22" value="Просмотр информации о курсе" style="ellipse;whiteSpace=wrap;html=1;" vertex="1" parent="1">
          <mxGeometry x="210" y="340" width="140" height="70" as="geometry" />
        </mxCell>
      </root>
    </mxGraphModel>
  </diagram>
</mxfile>
